<mxfile host="app.diagrams.net" modified="2022-04-26T14:42:52.671Z" agent="5.0 (Windows NT 10.0; Win64; x64) AppleWebKit/537.36 (KHTML, like Gecko) Chrome/100.0.4896.127 Safari/537.36" etag="3GDUPoEzambxI3fwLiAT" version="17.4.6" type="github">
  <diagram name="Page-1" id="74e2e168-ea6b-b213-b513-2b3c1d86103e">
    <mxGraphModel dx="2694" dy="1287" grid="1" gridSize="10" guides="1" tooltips="1" connect="1" arrows="1" fold="1" page="1" pageScale="1" pageWidth="1100" pageHeight="850" background="none" math="0" shadow="0">
      <root>
        <mxCell id="0" />
        <mxCell id="1" parent="0" />
        <mxCell id="77e6c97f196da883-1" value="Pool" style="swimlane;html=1;childLayout=stackLayout;startSize=20;rounded=0;shadow=0;labelBackgroundColor=none;strokeWidth=1;fontFamily=Verdana;fontSize=8;align=center;" parent="1" vertex="1">
          <mxGeometry x="70" y="20" width="1600" height="1080" as="geometry" />
        </mxCell>
        <mxCell id="M8xnJWZbosXk1X-mZnI6-101" value="sortActivity" style="swimlane;html=1;startSize=20;" vertex="1" parent="77e6c97f196da883-1">
          <mxGeometry y="20" width="230" height="1060" as="geometry" />
        </mxCell>
        <mxCell id="M8xnJWZbosXk1X-mZnI6-10" value="バブルソートで&lt;br&gt;activity.finish&lt;br&gt;終了時間が早い順にソート" style="shape=parallelogram;perimeter=parallelogramPerimeter;whiteSpace=wrap;html=1;fixedSize=1;hachureGap=4;" vertex="1" parent="M8xnJWZbosXk1X-mZnI6-101">
          <mxGeometry x="30" y="340" width="150" height="55" as="geometry" />
        </mxCell>
        <mxCell id="M8xnJWZbosXk1X-mZnI6-97" style="text;html=1;align=center;verticalAlign=middle;resizable=0;points=[];autosize=1;strokeColor=none;fillColor=none;hachureGap=4;" vertex="1" parent="77e6c97f196da883-1">
          <mxGeometry x="230" y="20" width="40" height="1060" as="geometry" />
        </mxCell>
        <mxCell id="M8xnJWZbosXk1X-mZnI6-100" style="text;html=1;align=center;verticalAlign=middle;resizable=0;points=[];autosize=1;strokeColor=none;fillColor=none;hachureGap=4;" vertex="1" parent="77e6c97f196da883-1">
          <mxGeometry x="270" y="20" width="40" height="1060" as="geometry" />
        </mxCell>
        <mxCell id="M8xnJWZbosXk1X-mZnI6-98" style="text;html=1;align=center;verticalAlign=middle;resizable=0;points=[];autosize=1;strokeColor=none;fillColor=none;hachureGap=4;" vertex="1" parent="77e6c97f196da883-1">
          <mxGeometry x="310" y="20" width="40" height="1060" as="geometry" />
        </mxCell>
        <mxCell id="77e6c97f196da883-2" value="Main" style="swimlane;html=1;startSize=20;" parent="77e6c97f196da883-1" vertex="1">
          <mxGeometry x="350" y="20" width="760" height="1060" as="geometry" />
        </mxCell>
        <mxCell id="M8xnJWZbosXk1X-mZnI6-16" value="&lt;span&gt;sortActivity(act, num)&lt;/span&gt;" style="shape=process;whiteSpace=wrap;html=1;backgroundOutline=1;hachureGap=4;" vertex="1" parent="77e6c97f196da883-2">
          <mxGeometry x="20" y="240" width="120" height="60" as="geometry" />
        </mxCell>
        <mxCell id="M8xnJWZbosXk1X-mZnI6-23" style="edgeStyle=orthogonalEdgeStyle;rounded=0;orthogonalLoop=1;jettySize=auto;html=1;exitX=0.5;exitY=1;exitDx=0;exitDy=0;entryX=0.5;entryY=0;entryDx=0;entryDy=0;endArrow=open;startSize=14;endSize=14;sourcePerimeterSpacing=8;targetPerimeterSpacing=8;" edge="1" parent="77e6c97f196da883-2" source="M8xnJWZbosXk1X-mZnI6-6" target="M8xnJWZbosXk1X-mZnI6-16">
          <mxGeometry relative="1" as="geometry" />
        </mxCell>
        <mxCell id="M8xnJWZbosXk1X-mZnI6-6" value="初期化処理&lt;br&gt;Data.cからnumとActivity配列を初期化" style="shape=parallelogram;perimeter=parallelogramPerimeter;whiteSpace=wrap;html=1;fixedSize=1;hachureGap=4;" vertex="1" parent="77e6c97f196da883-2">
          <mxGeometry x="5.5" y="140" width="159" height="60" as="geometry" />
        </mxCell>
        <mxCell id="M8xnJWZbosXk1X-mZnI6-75" style="edgeStyle=orthogonalEdgeStyle;rounded=0;orthogonalLoop=1;jettySize=auto;html=1;exitX=0.5;exitY=1;exitDx=0;exitDy=0;entryX=0.5;entryY=0;entryDx=0;entryDy=0;endArrow=open;startSize=14;endSize=14;sourcePerimeterSpacing=8;targetPerimeterSpacing=8;" edge="1" parent="77e6c97f196da883-2" source="M8xnJWZbosXk1X-mZnI6-17" target="M8xnJWZbosXk1X-mZnI6-21">
          <mxGeometry relative="1" as="geometry" />
        </mxCell>
        <mxCell id="M8xnJWZbosXk1X-mZnI6-17" value="time = 0&lt;br&gt;currntFinish に終了が一番早い配列の要素の終了時間をセット" style="shape=parallelogram;perimeter=parallelogramPerimeter;whiteSpace=wrap;html=1;fixedSize=1;hachureGap=4;" vertex="1" parent="77e6c97f196da883-2">
          <mxGeometry x="-0.5" y="410" width="165" height="60" as="geometry" />
        </mxCell>
        <mxCell id="M8xnJWZbosXk1X-mZnI6-74" style="edgeStyle=orthogonalEdgeStyle;rounded=0;orthogonalLoop=1;jettySize=auto;html=1;exitX=1;exitY=0.5;exitDx=0;exitDy=0;endArrow=open;startSize=14;endSize=14;sourcePerimeterSpacing=8;targetPerimeterSpacing=8;" edge="1" parent="77e6c97f196da883-2" source="M8xnJWZbosXk1X-mZnI6-20" target="M8xnJWZbosXk1X-mZnI6-27">
          <mxGeometry relative="1" as="geometry" />
        </mxCell>
        <mxCell id="M8xnJWZbosXk1X-mZnI6-95" style="edgeStyle=orthogonalEdgeStyle;rounded=0;orthogonalLoop=1;jettySize=auto;html=1;exitX=0.5;exitY=1;exitDx=0;exitDy=0;entryX=0.5;entryY=0;entryDx=0;entryDy=0;endArrow=open;startSize=14;endSize=14;sourcePerimeterSpacing=8;targetPerimeterSpacing=8;" edge="1" parent="77e6c97f196da883-2" source="M8xnJWZbosXk1X-mZnI6-20" target="M8xnJWZbosXk1X-mZnI6-94">
          <mxGeometry relative="1" as="geometry">
            <Array as="points">
              <mxPoint x="20" y="660" />
              <mxPoint x="20" y="1000" />
              <mxPoint x="82" y="1000" />
            </Array>
          </mxGeometry>
        </mxCell>
        <mxCell id="M8xnJWZbosXk1X-mZnI6-20" value="time &amp;lt; num" style="rhombus;whiteSpace=wrap;html=1;hachureGap=4;" vertex="1" parent="77e6c97f196da883-2">
          <mxGeometry x="29.5" y="600" width="105" height="60" as="geometry" />
        </mxCell>
        <mxCell id="M8xnJWZbosXk1X-mZnI6-76" style="edgeStyle=orthogonalEdgeStyle;rounded=0;orthogonalLoop=1;jettySize=auto;html=1;exitX=0.5;exitY=1;exitDx=0;exitDy=0;entryX=0.5;entryY=0;entryDx=0;entryDy=0;endArrow=open;startSize=14;endSize=14;sourcePerimeterSpacing=8;targetPerimeterSpacing=8;" edge="1" parent="77e6c97f196da883-2" source="M8xnJWZbosXk1X-mZnI6-21" target="M8xnJWZbosXk1X-mZnI6-20">
          <mxGeometry relative="1" as="geometry" />
        </mxCell>
        <mxCell id="M8xnJWZbosXk1X-mZnI6-21" value="time ++;" style="shape=parallelogram;perimeter=parallelogramPerimeter;whiteSpace=wrap;html=1;fixedSize=1;hachureGap=4;" vertex="1" parent="77e6c97f196da883-2">
          <mxGeometry x="22" y="550" width="120" height="20" as="geometry" />
        </mxCell>
        <mxCell id="M8xnJWZbosXk1X-mZnI6-89" style="edgeStyle=orthogonalEdgeStyle;rounded=0;orthogonalLoop=1;jettySize=auto;html=1;exitX=0;exitY=0.5;exitDx=0;exitDy=0;entryX=0.5;entryY=0;entryDx=0;entryDy=0;endArrow=open;startSize=14;endSize=14;sourcePerimeterSpacing=8;targetPerimeterSpacing=8;" edge="1" parent="77e6c97f196da883-2" source="M8xnJWZbosXk1X-mZnI6-18" target="M8xnJWZbosXk1X-mZnI6-21">
          <mxGeometry relative="1" as="geometry">
            <Array as="points">
              <mxPoint x="550" y="955" />
              <mxPoint x="550" y="520" />
              <mxPoint x="82" y="520" />
            </Array>
          </mxGeometry>
        </mxCell>
        <mxCell id="M8xnJWZbosXk1X-mZnI6-105" style="edgeStyle=orthogonalEdgeStyle;rounded=0;orthogonalLoop=1;jettySize=auto;html=1;exitX=0.5;exitY=1;exitDx=0;exitDy=0;entryX=0.5;entryY=0;entryDx=0;entryDy=0;endArrow=open;startSize=14;endSize=14;sourcePerimeterSpacing=8;targetPerimeterSpacing=8;" edge="1" parent="77e6c97f196da883-2" source="M8xnJWZbosXk1X-mZnI6-18" target="M8xnJWZbosXk1X-mZnI6-94">
          <mxGeometry relative="1" as="geometry" />
        </mxCell>
        <mxCell id="M8xnJWZbosXk1X-mZnI6-18" value="true" style="rhombus;whiteSpace=wrap;html=1;hachureGap=4;" vertex="1" parent="77e6c97f196da883-2">
          <mxGeometry x="32" y="930" width="100" height="50" as="geometry" />
        </mxCell>
        <mxCell id="M8xnJWZbosXk1X-mZnI6-45" style="edgeStyle=orthogonalEdgeStyle;rounded=0;orthogonalLoop=1;jettySize=auto;html=1;exitX=0.5;exitY=1;exitDx=0;exitDy=0;entryX=0.547;entryY=0.1;entryDx=0;entryDy=0;entryPerimeter=0;endArrow=open;startSize=14;endSize=14;sourcePerimeterSpacing=8;targetPerimeterSpacing=8;" edge="1" parent="77e6c97f196da883-2" source="M8xnJWZbosXk1X-mZnI6-26" target="M8xnJWZbosXk1X-mZnI6-42">
          <mxGeometry relative="1" as="geometry" />
        </mxCell>
        <mxCell id="M8xnJWZbosXk1X-mZnI6-26" value="currentFinishをactivity[time].Finishに変更" style="shape=parallelogram;perimeter=parallelogramPerimeter;whiteSpace=wrap;html=1;fixedSize=1;hachureGap=4;" vertex="1" parent="77e6c97f196da883-2">
          <mxGeometry x="370" y="790" width="160" height="40" as="geometry" />
        </mxCell>
        <mxCell id="M8xnJWZbosXk1X-mZnI6-44" style="edgeStyle=orthogonalEdgeStyle;rounded=0;orthogonalLoop=1;jettySize=auto;html=1;exitX=1;exitY=0.5;exitDx=0;exitDy=0;entryX=0.5;entryY=0;entryDx=0;entryDy=0;endArrow=open;startSize=14;endSize=14;sourcePerimeterSpacing=8;targetPerimeterSpacing=8;" edge="1" parent="77e6c97f196da883-2" source="M8xnJWZbosXk1X-mZnI6-27" target="M8xnJWZbosXk1X-mZnI6-26">
          <mxGeometry relative="1" as="geometry" />
        </mxCell>
        <mxCell id="M8xnJWZbosXk1X-mZnI6-83" style="edgeStyle=orthogonalEdgeStyle;rounded=0;orthogonalLoop=1;jettySize=auto;html=1;exitX=0.5;exitY=1;exitDx=0;exitDy=0;entryX=0.5;entryY=0;entryDx=0;entryDy=0;endArrow=open;startSize=14;endSize=14;sourcePerimeterSpacing=8;targetPerimeterSpacing=8;" edge="1" parent="77e6c97f196da883-2" source="M8xnJWZbosXk1X-mZnI6-27" target="M8xnJWZbosXk1X-mZnI6-18">
          <mxGeometry relative="1" as="geometry" />
        </mxCell>
        <mxCell id="M8xnJWZbosXk1X-mZnI6-27" value="crrentFinish &amp;lt;= activity[time].start&lt;br&gt;現在の終了時間以上で始まる要素である" style="rhombus;whiteSpace=wrap;html=1;hachureGap=4;" vertex="1" parent="77e6c97f196da883-2">
          <mxGeometry x="130" y="680" width="225" height="80" as="geometry" />
        </mxCell>
        <mxCell id="M8xnJWZbosXk1X-mZnI6-86" style="edgeStyle=orthogonalEdgeStyle;rounded=0;orthogonalLoop=1;jettySize=auto;html=1;exitX=0.5;exitY=1;exitDx=0;exitDy=0;endArrow=open;startSize=14;endSize=14;sourcePerimeterSpacing=8;targetPerimeterSpacing=8;" edge="1" parent="77e6c97f196da883-2" source="M8xnJWZbosXk1X-mZnI6-42" target="M8xnJWZbosXk1X-mZnI6-18">
          <mxGeometry relative="1" as="geometry" />
        </mxCell>
        <mxCell id="M8xnJWZbosXk1X-mZnI6-42" value="要素の名前を出力" style="shape=parallelogram;perimeter=parallelogramPerimeter;whiteSpace=wrap;html=1;fixedSize=1;hachureGap=4;" vertex="1" parent="77e6c97f196da883-2">
          <mxGeometry x="360" y="860" width="170" height="20" as="geometry" />
        </mxCell>
        <mxCell id="M8xnJWZbosXk1X-mZnI6-73" value="Yes" style="text;html=1;align=center;verticalAlign=middle;resizable=0;points=[];autosize=1;strokeColor=none;fillColor=none;hachureGap=4;" vertex="1" parent="77e6c97f196da883-2">
          <mxGeometry x="355" y="690" width="40" height="20" as="geometry" />
        </mxCell>
        <mxCell id="M8xnJWZbosXk1X-mZnI6-94" value="end" style="rounded=1;whiteSpace=wrap;html=1;hachureGap=4;" vertex="1" parent="77e6c97f196da883-2">
          <mxGeometry x="47" y="1030" width="70" height="20" as="geometry" />
        </mxCell>
        <mxCell id="M8xnJWZbosXk1X-mZnI6-4" value="start" style="rounded=1;whiteSpace=wrap;html=1;hachureGap=4;" vertex="1" parent="77e6c97f196da883-2">
          <mxGeometry x="25" y="30" width="120" height="60" as="geometry" />
        </mxCell>
        <mxCell id="M8xnJWZbosXk1X-mZnI6-22" style="edgeStyle=orthogonalEdgeStyle;rounded=0;orthogonalLoop=1;jettySize=auto;html=1;exitX=0.5;exitY=1;exitDx=0;exitDy=0;entryX=0.5;entryY=0;entryDx=0;entryDy=0;endArrow=open;startSize=14;endSize=14;sourcePerimeterSpacing=8;targetPerimeterSpacing=8;" edge="1" parent="77e6c97f196da883-2" source="M8xnJWZbosXk1X-mZnI6-4" target="M8xnJWZbosXk1X-mZnI6-6">
          <mxGeometry relative="1" as="geometry" />
        </mxCell>
        <mxCell id="M8xnJWZbosXk1X-mZnI6-104" value="Yes" style="text;html=1;align=center;verticalAlign=middle;resizable=0;points=[];autosize=1;strokeColor=none;fillColor=none;hachureGap=4;" vertex="1" parent="77e6c97f196da883-2">
          <mxGeometry x="124.5" y="600" width="40" height="20" as="geometry" />
        </mxCell>
        <mxCell id="M8xnJWZbosXk1X-mZnI6-106" value="Yes" style="text;html=1;align=center;verticalAlign=middle;resizable=0;points=[];autosize=1;strokeColor=none;fillColor=none;hachureGap=4;" vertex="1" parent="77e6c97f196da883-2">
          <mxGeometry x="124.5" y="920" width="40" height="20" as="geometry" />
        </mxCell>
        <mxCell id="M8xnJWZbosXk1X-mZnI6-102" style="edgeStyle=orthogonalEdgeStyle;rounded=0;orthogonalLoop=1;jettySize=auto;html=1;exitX=0.5;exitY=1;exitDx=0;exitDy=0;entryX=0.5;entryY=0;entryDx=0;entryDy=0;endArrow=open;startSize=14;endSize=14;sourcePerimeterSpacing=8;targetPerimeterSpacing=8;" edge="1" parent="77e6c97f196da883-1" source="M8xnJWZbosXk1X-mZnI6-16" target="M8xnJWZbosXk1X-mZnI6-10">
          <mxGeometry relative="1" as="geometry" />
        </mxCell>
        <mxCell id="M8xnJWZbosXk1X-mZnI6-103" style="edgeStyle=orthogonalEdgeStyle;rounded=0;orthogonalLoop=1;jettySize=auto;html=1;exitX=0.5;exitY=1;exitDx=0;exitDy=0;entryX=0.548;entryY=0.05;entryDx=0;entryDy=0;entryPerimeter=0;endArrow=open;startSize=14;endSize=14;sourcePerimeterSpacing=8;targetPerimeterSpacing=8;" edge="1" parent="77e6c97f196da883-1" source="M8xnJWZbosXk1X-mZnI6-10" target="M8xnJWZbosXk1X-mZnI6-17">
          <mxGeometry relative="1" as="geometry" />
        </mxCell>
      </root>
    </mxGraphModel>
  </diagram>
</mxfile>
